<?xml version="1.0" encoding="UTF-8" standalone="no"?>
<!-- Created with Inkscape (http://www.inkscape.org/) -->

<svg
   width="16"
   height="16"
   viewBox="0 0 16 16"
   version="1.1"
   id="svg1"
   xml:space="preserve"
   inkscape:version="1.4.2 (ebf0e940d0, 2025-05-08)"
   sodipodi:docname="icon.svg"
   xmlns:inkscape="http://www.inkscape.org/namespaces/inkscape"
   xmlns:sodipodi="http://sodipodi.sourceforge.net/DTD/sodipodi-0.dtd"
   xmlns="http://www.w3.org/2000/svg"
   xmlns:svg="http://www.w3.org/2000/svg"><sodipodi:namedview
     id="namedview1"
     pagecolor="#505050"
     bordercolor="#eeeeee"
     borderopacity="1"
     inkscape:showpageshadow="0"
     inkscape:pageopacity="0"
     inkscape:pagecheckerboard="0"
     inkscape:deskcolor="#505050"
     inkscape:document-units="px"
     inkscape:zoom="32"
     inkscape:cx="2.703125"
     inkscape:cy="6.953125"
     inkscape:window-width="1920"
     inkscape:window-height="1010"
     inkscape:window-x="0"
     inkscape:window-y="40"
     inkscape:window-maximized="1"
     inkscape:current-layer="layer1" /><defs
     id="defs1" /><g
     inkscape:label="Camada 1"
     inkscape:groupmode="layer"
     id="layer1"><rect
       style="fill:#ffffff"
       id="rect1"
       width="16"
       height="16"
       x="0"
       y="0" /><path
       style="fill:#000000;stroke-width:1.76942"
       d="M 2.3383302,7.2372279 2.337787,2.8844638 H 3.4136363 4.4894875 V 6.1224956 9.360527 l 1.2102807,0.0039 c 0.6656544,0.0021 1.2977394,6.46e-4 1.4046334,-0.0034 0.1160737,-0.0044 0.190191,0.0065 0.1840193,0.027 -0.00566,0.01886 -0.3097186,0.521036 -0.6756339,1.115946 l -0.6653005,1.081653 -1.8043074,0.0021 -1.8043057,0.0021 z M 6.9430521,11.543416 C 6.9559691,11.515386 7.264732,11.01347 7.629032,10.42803 L 8.291393,9.363592 9.69571,9.353152 c 1.286785,-0.0096 1.412086,-0.01575 1.497158,-0.07375 0.05107,-0.03486 0.105528,-0.05358 0.121028,-0.0416 0.01557,0.01203 0.02504,0.0087 0.02118,-0.0074 -0.0039,-0.0161 0.01628,-0.07264 0.04464,-0.12577 0.114039,-0.213309 0.115738,-0.543401 0.0039,-0.756743 C 11.357356,8.297799 11.276443,8.222491 11.203794,8.18052 11.07583,8.10659 11.027436,8.10353 9.656174,8.08281 8.472148,8.06492 8.201284,8.05137 8,8 6.8852771,7.7154993 6.3214314,7.0511189 6.2170305,5.8991015 6.1656113,5.3316462 6.2577094,4.7047632 6.459782,4.2468524 6.5027258,4.1495345 6.6362636,3.9475486 6.7565291,3.7979957 7.0888042,3.3847981 7.542475,3.1294572 8.238482,2.9639 8.429799,2.918391 8.866121,2.907137 10.911384,2.894981 l 2.444263,-0.014509 -0.152612,0.2408476 c -0.08394,0.1324762 -0.397227,0.6421177 -0.696206,1.1325574 l -0.543593,0.8917009 -1.606504,-0.00131 C 9.473155,5.1435478 8.712008,5.1545309 8.665296,5.1688269 8.514418,5.2147959 8.37018,5.3244825 8.329935,5.4238759 8.230065,5.6705803 8.253605,5.9724268 8.386225,6.1454438 8.5336,6.337721 8.619588,6.3486383 10.109152,6.364172 c 1.224998,0.01274 1.391299,0.021481 1.68755,0.088276 1.090582,0.2459117 1.626681,0.866124 1.727864,1.998961 0.04751,0.53195 -0.03537,1.197667 -0.203524,1.634585 -0.286782,0.745188 -0.865813,1.197693 -1.822513,1.424271 -0.33644,0.07968 -4.5914017,0.110659 -4.5554772,0.03316 z"
       id="path1" /></g></svg>
